<svg xmlns="http://www.w3.org/2000/svg" width="298" height="298" viewBox="0 0 298 298">
  <defs>
    <style>
      .a {
        fill: #fff;
      }

      .b {
        fill: #0077b5;
      }
    </style>
  </defs>
  <title>Asset 135</title>
  <g>
    <rect class="a" x="75.83295" y="123.30688" width="32.17188" height="101.19336"/>
    <path class="a" d="M192.50092,224.50024V175.27563c0-11.001,0-26.0664-15.68116-26.0664-16.01611,0-18.17578,12.75586-18.17578,25.23437v50.05664H126.54047V123.30688h30.85058V136.345c4.3208-7.36426,14.35059-15.52441,29.39063-15.52441,33.27051,0,37.85693,23.18066,37.85693,48.23047v55.44921Z"/>
    <path class="a" d="M91.92719,110.61743A18.5586,18.5586,0,1,1,110.4765,92.05688,18.5842,18.5842,0,0,1,91.92719,110.61743Z"/>
    <path class="b" d="M149,0A149,149,0,1,0,298,149,149,149,0,0,0,149,0ZM107.50476,224H76.333V123.8064h31.17175ZM91.92743,110.11731A18.05866,18.05866,0,1,1,109.9765,92.05737,18.05085,18.05085,0,0,1,91.92743,110.11731ZM224.13879,224H193.001V175.27588c0-11.61878-.19947-26.56647-16.181-26.56647-16.20374,0-18.676,12.66388-18.676,25.73468V224H127.04047V123.8064h29.85064v13.69726h.42694c4.152-7.87683,14.31293-16.18347,29.46338-16.18347,31.5304,0,37.35736,20.74591,37.35736,47.73035Z"/>
  </g>
</svg>
